<svg xmlns="http://www.w3.org/2000/svg" viewBox="0 0 220 200" width="220" height="200">
  <g fill="none" stroke-width="6" stroke-linecap="round" stroke-linejoin="round">
    <path stroke="#155e63" d="M 48 70 Q 110 44 172 70"/>
    <path stroke="#155e63" d="M 48 70 Q 60 84 72 70 Q 84 84 96 70 Q 108 84 120 70 Q 132 84 144 70 Q 156 84 168 70"/>
    <path stroke="#155e63" d="M 64 70 V 92"/>
    <path stroke="#155e63" d="M 152 70 V 92"/>
    <path stroke="#155e63" d="M 60 92 H 156 V 152 H 60 Z"/>
    <path stroke="#155e63" d="M 78 100 H 138 V 122 H 78 Z"/>
    <ellipse stroke="#155e63" cx="82" cy="162" rx="12" ry="12"/>
    <ellipse stroke="#155e63" cx="82" cy="162" rx="3" ry="3"/>
    <ellipse stroke="#155e63" cx="134" cy="162" rx="12" ry="12"/>
    <ellipse stroke="#155e63" cx="134" cy="162" rx="3" ry="3"/>
  </g>
</svg>